<svg width="302" height="302" viewBox="0 0 302 302" fill="none" xmlns="http://www.w3.org/2000/svg">
<path fill-rule="evenodd" clip-rule="evenodd" d="M150.3 101.8C145 101.6 138.1 98.2 136.3 91.9C134.4 85.7 140.7 81.7 138.3 72.9C142.2 74.3 141 76.6 142.3 81.6C143.3 76.8 141.1 71.5 145.8 68.8C150.4 66.2 138 61.3 148.3 56.6C145 60.3 146.1 60.3 150.8 64.4C154 67.3 151.9 70.1 151.9 74.1C153.2 70.7 152.9 70.1 156.3 67.6C154.8 72.3 156.6 74.1 156.7 77.2C159.2 76.8 157.5 72.1 160 71.6C158 78.5 166.3 86.4 164.2 92.5C161.8 99.3 155.6 102.1 150.3 101.8ZM152.7 96C152 90.1 148.2 95 146.7 88.2C145.8 84.1 150.4 80.3 149.8 74C151.3 76.5 154.5 80.3 153.2 82.9C151.1 87.5 154.3 91.1 152.7 96ZM139.6 80.8C137.9 84.7 137.3 88.5 138 90.6C139.5 90.2 140.4 91.9 140.6 95.6C142.6 87.2 138 89.3 139.6 80.8Z" fill="white"/>
<path d="M150.903 102.1C150.703 102.1 150.503 102.1 150.303 102.1C144.703 101.9 137.803 98.3 136.003 92C135.103 89 136.003 86.6 137.003 84C138.103 80.9 139.303 77.7 138.003 73L137.903 72.5L138.403 72.7C141.303 73.8 141.603 75.4 141.903 78C142.003 78.7 142.103 79.5 142.303 80.3C142.403 79.2 142.403 78.1 142.403 77.1C142.403 73.8 142.403 70.6 145.703 68.7C146.203 68.4 146.503 68.1 146.603 67.7C146.803 66.9 146.103 66 145.403 64.9C144.503 63.5 143.403 61.9 143.903 60.2C144.303 58.8 145.703 57.6 148.203 56.5L148.503 56.9C147.303 58.2 146.603 59.2 146.703 59.9C146.703 60.7 147.703 61.5 149.403 62.9C149.903 63.3 150.403 63.7 151.003 64.3C153.403 66.4 153.003 68.5 152.603 70.9C152.503 71.3 152.503 71.7 152.403 72.1C153.103 70.3 153.503 69.4 156.103 67.4L156.503 67.7C155.503 70.8 156.003 72.6 156.403 74.4C156.603 75.2 156.803 76 156.903 76.9C157.703 76.6 157.903 75.5 158.103 74.4C158.303 73.1 158.503 71.7 160.003 71.4L160.403 71.3L160.303 71.7C159.303 75.1 160.903 78.8 162.503 82.4C164.103 86.1 165.603 89.5 164.503 92.6C162.003 99.7 155.703 102.1 150.903 102.1ZM138.603 73.4C139.703 78 138.503 81.3 137.503 84.2C136.503 86.8 135.703 89.1 136.503 91.9C138.203 97.9 144.903 101.4 150.303 101.6C155.103 101.8 161.403 99.5 163.903 92.5C164.903 89.6 163.503 86.2 161.903 82.7C160.403 79.2 158.803 75.6 159.603 72.2C158.903 72.6 158.803 73.6 158.603 74.6C158.403 75.9 158.203 77.4 156.703 77.6H156.403V77.3C156.403 76.3 156.103 75.5 155.903 74.6C155.503 72.9 155.103 71.2 155.803 68.5C153.603 70.2 153.403 71 152.703 73C152.603 73.4 152.403 73.9 152.203 74.5L151.703 74.4C151.703 73.2 151.903 72.1 152.103 71.1C152.503 68.7 152.903 66.9 150.703 65C150.103 64.5 149.603 64 149.103 63.6C147.303 62.1 146.303 61.2 146.203 60.2C146.203 59.5 146.603 58.8 147.303 57.8C145.703 58.7 144.803 59.6 144.503 60.6C144.103 62 145.003 63.5 145.903 64.9C146.703 66.1 147.403 67.1 147.103 68.1C147.003 68.6 146.603 69.1 146.003 69.4C142.903 71.2 142.903 74 142.903 77.3C142.903 78.9 142.903 80.5 142.603 82H142.003C141.603 80.6 141.503 79.4 141.303 78.3C141.003 75.7 140.803 74.4 138.603 73.4ZM153.003 96.1H152.503C152.203 93.4 151.303 93.1 150.103 92.8C148.803 92.4 147.303 92 146.503 88.4C146.103 86.4 146.903 84.4 147.803 82.3C148.803 80 149.903 77.4 149.603 74.2L150.103 74C150.403 74.4 150.703 74.9 151.003 75.4C152.603 77.8 154.603 80.8 153.503 83.1C152.403 85.4 152.703 87.5 153.103 89.6C153.403 91.7 153.703 93.7 153.003 96.1ZM150.203 75.1C150.203 78 149.203 80.3 148.303 82.5C147.403 84.6 146.603 86.4 147.103 88.2C147.803 91.5 149.103 91.9 150.303 92.2C151.303 92.5 152.303 92.8 152.903 94.7C153.203 92.9 152.903 91.3 152.703 89.7C152.303 87.5 152.003 85.3 153.103 82.8C154.103 80.8 152.203 77.9 150.603 75.6C150.403 75.5 150.303 75.3 150.203 75.1ZM140.903 95.7H140.403C140.303 93.2 139.803 91.7 139.103 91.1C138.803 90.9 138.503 90.8 138.103 90.9H137.903L137.803 90.7C137.003 88.5 137.603 84.7 139.403 80.7L139.903 80.9C139.103 85 139.803 86.6 140.503 88.1C141.203 89.7 141.903 91.3 140.903 95.7ZM138.503 90.3C138.903 90.3 139.203 90.4 139.403 90.6C140.003 91.1 140.503 92.1 140.703 93.7C141.103 90.9 140.503 89.6 139.903 88.3C139.303 87 138.703 85.7 139.003 83C138.003 85.9 137.703 88.6 138.203 90.3C138.303 90.3 138.403 90.3 138.503 90.3Z" fill="white"/>
<path fill-rule="evenodd" clip-rule="evenodd" d="M225.602 138.1L205.802 130.4C204.302 129.8 202.702 130.4 202.202 131.7C201.702 132.9 202.602 134.5 204.002 135L223.802 142.7C225.302 143.3 226.902 142.7 227.302 141.5C227.902 140.1 227.102 138.6 225.602 138.1Z" fill="white"/>
<path fill-rule="evenodd" clip-rule="evenodd" d="M225.298 145.6L202.698 137C200.998 136.4 199.198 137 198.598 138.4C198.098 139.8 198.998 141.5 200.698 142.2L223.298 150.8C224.998 151.4 226.798 150.8 227.298 149.4C227.898 147.9 226.998 146.2 225.298 145.6Z" fill="white"/>
<path fill-rule="evenodd" clip-rule="evenodd" d="M224.796 153.7L200.496 144.5C198.696 143.8 196.696 144.5 196.096 146C195.496 147.5 196.496 149.4 198.296 150L222.596 159.2C224.396 159.9 226.396 159.2 226.996 157.7C227.596 156.2 226.596 154.4 224.796 153.7Z" fill="white"/>
<path fill-rule="evenodd" clip-rule="evenodd" d="M223.303 161.7L197.703 152C195.803 151.3 193.703 152 193.103 153.6C192.503 155.2 193.503 157.1 195.503 157.9L221.103 167.6C223.003 168.3 225.103 167.6 225.703 166C226.303 164.3 225.203 162.4 223.303 161.7Z" fill="white"/>
<path fill-rule="evenodd" clip-rule="evenodd" d="M221.798 169.9L194.198 159.4C192.098 158.6 189.898 159.4 189.198 161.2C188.498 163 189.698 165 191.798 165.8L209.398 172.5C203.998 171 198.198 169.3 191.698 167.3C176.498 170.8 169.198 175.1 166.898 179.8C164.598 184.5 166.498 200.8 171.498 227.9C181.998 224.5 190.798 220 200.398 213.5C197.998 192.2 198.898 191.1 195.398 188.8C191.898 186.6 188.998 188.4 180.798 190.3C195.898 184.1 205.498 182.5 220.298 176.6C222.098 176.9 223.798 176.1 224.398 174.6C224.998 172.7 223.798 170.6 221.798 169.9Z" fill="white"/>
<path fill-rule="evenodd" clip-rule="evenodd" d="M225.602 138.1L205.802 130.4C204.302 129.8 202.702 130.4 202.202 131.7C201.702 132.9 202.602 134.5 204.002 135L223.802 142.7C225.302 143.3 226.902 142.7 227.302 141.5C227.902 140.1 227.102 138.6 225.602 138.1Z" fill="white"/>
<path fill-rule="evenodd" clip-rule="evenodd" d="M225.298 145.6L202.698 137C200.998 136.4 199.198 137 198.598 138.4C198.098 139.8 198.998 141.5 200.698 142.2L223.298 150.8C224.998 151.4 226.798 150.8 227.298 149.4C227.898 147.9 226.998 146.2 225.298 145.6Z" fill="white"/>
<path fill-rule="evenodd" clip-rule="evenodd" d="M224.796 153.7L200.496 144.5C198.696 143.8 196.696 144.5 196.096 146C195.496 147.5 196.496 149.4 198.296 150L222.596 159.2C224.396 159.9 226.396 159.2 226.996 157.7C227.596 156.2 226.596 154.4 224.796 153.7Z" fill="white"/>
<path fill-rule="evenodd" clip-rule="evenodd" d="M223.303 161.7L197.703 152C195.803 151.3 193.703 152 193.103 153.6C192.503 155.2 193.503 157.1 195.503 157.9L221.103 167.6C223.003 168.3 225.103 167.6 225.703 166C226.303 164.3 225.203 162.4 223.303 161.7Z" fill="white"/>
<path fill-rule="evenodd" clip-rule="evenodd" d="M221.798 169.9L194.198 159.4C192.098 158.6 189.898 159.4 189.198 161.2C188.498 163 189.698 165 191.798 165.8L209.398 172.5C203.998 171 198.198 169.3 191.698 167.3C176.498 170.8 169.198 175.1 166.898 179.8C164.598 184.5 166.498 200.8 171.498 227.9C181.998 224.5 190.798 220 200.398 213.5C197.998 192.2 198.898 191.1 195.398 188.8C191.898 186.6 188.998 188.4 180.798 190.3C195.898 184.1 205.498 182.5 220.298 176.6C222.098 176.9 223.798 176.1 224.398 174.6C224.998 172.7 223.798 170.6 221.798 169.9Z" fill="white"/>
<path fill-rule="evenodd" clip-rule="evenodd" d="M80.2024 169.9L107.902 159.4C110.002 158.6 112.202 159.4 112.802 161.2C113.502 163 112.302 165 110.302 165.8L92.7024 172.5C98.1024 171 103.902 169.3 110.402 167.3C125.602 170.8 132.902 175.1 135.202 179.8C137.502 184.5 135.602 200.8 130.502 227.9C120.602 225.1 110.902 219.9 101.302 213.2C103.702 191.9 103.102 191.1 106.502 188.9C110.002 186.7 112.902 188.5 121.102 190.4C106.002 184.2 96.4024 182.6 81.6024 176.7C79.8024 177 78.1024 176.2 77.5024 174.7C77.0024 172.7 78.1024 170.6 80.2024 169.9Z" fill="white"/>
<path fill-rule="evenodd" clip-rule="evenodd" d="M78.5976 161.7L104.198 152C106.098 151.3 108.198 152 108.798 153.6C109.398 155.2 108.398 157.1 106.498 157.9L80.8976 167.6C78.9976 168.3 76.8976 167.6 76.2976 166C75.6976 164.3 76.7976 162.4 78.5976 161.7Z" fill="white"/>
<path fill-rule="evenodd" clip-rule="evenodd" d="M77.1972 153.7L101.497 144.5C103.297 143.8 105.297 144.5 105.897 146C106.497 147.5 105.497 149.4 103.697 150L79.3972 159.2C77.5972 159.9 75.5972 159.2 74.9972 157.7C74.2972 156.2 75.2972 154.4 77.1972 153.7Z" fill="white"/>
<path fill-rule="evenodd" clip-rule="evenodd" d="M76.6971 145.6L99.2971 137C100.997 136.4 102.797 137 103.297 138.4C103.797 139.8 102.897 141.5 101.197 142.2L78.5971 150.8C76.8971 151.4 75.0971 150.8 74.5971 149.4C73.9971 147.9 74.9971 146.2 76.6971 145.6Z" fill="white"/>
<path fill-rule="evenodd" clip-rule="evenodd" d="M76.2993 138.1L96.0993 130.4C97.5993 129.8 99.1993 130.4 99.6993 131.7C100.199 132.9 99.2993 134.5 97.8993 135L77.9993 142.7C76.4993 143.3 74.8993 142.7 74.3993 141.5C73.9993 140.1 74.7993 138.6 76.2993 138.1Z" fill="white"/>
<path fill-rule="evenodd" clip-rule="evenodd" d="M76.2993 138.1L96.0993 130.4C97.5993 129.8 99.1993 130.4 99.6993 131.7C100.199 132.9 99.2993 134.5 97.8993 135L77.9993 142.7C76.4993 143.3 74.8993 142.7 74.3993 141.5C73.9993 140.1 74.7993 138.6 76.2993 138.1Z" fill="white"/>
<path fill-rule="evenodd" clip-rule="evenodd" d="M76.6971 145.6L99.2971 137C100.997 136.4 102.797 137 103.297 138.4C103.797 139.8 102.897 141.5 101.197 142.2L78.5971 150.8C76.8971 151.4 75.0971 150.8 74.5971 149.4C73.9971 147.9 74.9971 146.2 76.6971 145.6Z" fill="white"/>
<path fill-rule="evenodd" clip-rule="evenodd" d="M77.1972 153.7L101.497 144.5C103.297 143.8 105.297 144.5 105.897 146C106.497 147.5 105.497 149.4 103.697 150L79.3972 159.2C77.5972 159.9 75.5972 159.2 74.9972 157.7C74.2972 156.2 75.2972 154.4 77.1972 153.7Z" fill="white"/>
<path fill-rule="evenodd" clip-rule="evenodd" d="M78.5976 161.7L104.198 152C106.098 151.3 108.198 152 108.798 153.6C109.398 155.2 108.398 157.1 106.498 157.9L80.8976 167.6C78.9976 168.3 76.8976 167.6 76.2976 166C75.6976 164.3 76.7976 162.4 78.5976 161.7Z" fill="white"/>
<path fill-rule="evenodd" clip-rule="evenodd" d="M80.2024 169.9L107.902 159.4C110.002 158.6 112.202 159.4 112.802 161.2C113.502 163 112.302 165 110.302 165.8L92.7024 172.5C98.1024 171 103.902 169.3 110.402 167.3C125.602 170.8 132.902 175.1 135.202 179.8C137.502 184.5 135.602 200.8 130.502 227.9C120.602 225.1 110.902 219.9 101.302 213.2C103.702 191.9 103.102 191.1 106.502 188.9C110.002 186.7 112.902 188.5 121.102 190.4C106.002 184.2 96.4024 182.6 81.6024 176.7C79.8024 177 78.1024 176.2 77.5024 174.7C77.0024 172.7 78.1024 170.6 80.2024 169.9Z" fill="white"/>
<path fill-rule="evenodd" clip-rule="evenodd" d="M97.8984 120L122.598 168C145.098 157.7 159.498 160.6 179.598 169.4L203.698 121.3C202.798 120.7 201.898 120.1 200.998 119.5L200.498 120.6C201.098 121 201.598 121.3 202.198 121.7L178.998 167.8H178.898L178.598 168.3C160.598 160.6 144.898 157.9 123.398 167L123.098 166.4H122.998L99.3984 120.4C99.8984 120.1 100.498 119.8 100.998 119.5L100.498 118.4C99.5984 119 98.6984 119.5 97.8984 120ZM160.098 109.2C156.998 109.5 153.698 110.1 150.198 110.9C146.698 110.3 143.498 109.8 140.398 109.6C143.498 110 146.798 110.5 150.198 111.2C153.698 110.3 156.998 109.7 160.098 109.2Z" fill="#EC2027"/>
<path fill-rule="evenodd" clip-rule="evenodd" d="M99.6016 116.5L123.402 167C131.402 163.6 138.502 161.9 145.302 161.4C138.502 161.7 131.602 163.3 124.602 166.3L124.202 165.4C124.102 165.4 124.002 165.5 123.902 165.5L101.002 117C101.902 116.5 102.802 116 103.702 115.5L103.302 114.4C102.102 115 100.802 115.7 99.6016 116.5ZM172.002 165.7C174.202 166.5 176.402 167.4 178.602 168.3L201.702 117.5C200.502 116.6 199.302 115.9 198.102 115.1L197.702 116.2C197.802 116.2 197.802 116.3 197.902 116.3C198.702 116.8 199.502 117.3 200.302 117.9L178.002 166.8C177.702 166.7 177.502 166.6 177.202 166.4L176.802 167.4C175.202 166.8 173.602 166.2 172.002 165.7Z" fill="#EC2027"/>
<path fill-rule="evenodd" clip-rule="evenodd" d="M103.602 111.9L125.302 164.7C133.602 161.2 142.302 159.7 151.302 160.2C159.802 160.6 168.202 162.8 176.102 165.9L197.802 112.7C192.202 107.9 185.502 105.3 178.302 104.3C169.002 103 159.402 104.5 150.502 107.1L150.202 107.2L149.902 107.1C135.802 103.7 119.402 102.3 106.302 110C105.502 110.7 104.502 111.3 103.602 111.9Z" fill="white"/>
<path fill-rule="evenodd" clip-rule="evenodd" d="M102.203 111.5L124.703 166.3C142.503 158.5 159.803 160.7 176.903 167.5L199.403 112.5C188.503 102.7 171.303 99.8 150.403 106.1C130.103 101.2 113.903 102.6 102.203 111.5ZM103.603 111.9L125.303 164.7C133.603 161.2 142.303 159.7 151.303 160.2C159.803 160.6 168.203 162.8 176.103 165.9L197.803 112.7C192.203 107.9 185.503 105.3 178.303 104.3C169.003 103 159.403 104.5 150.503 107.1L150.203 107.2L149.903 107.1C135.803 103.7 119.403 102.3 106.303 110C105.503 110.7 104.503 111.3 103.603 111.9Z" fill="#EC2027"/>
<path fill-rule="evenodd" clip-rule="evenodd" d="M152.197 115.7C155.697 116.1 158.997 117.5 161.597 119.6L164.397 116.8L167.197 119.6L164.397 122.4C166.497 125 167.897 128.3 168.297 131.8C169.597 131.8 170.997 131.8 172.297 131.8C172.297 133.1 172.297 134.5 172.297 135.8C170.997 135.8 169.597 135.8 168.297 135.8C167.897 139.3 166.497 142.6 164.397 145.2C165.297 146.2 166.297 147.1 167.197 148.1C166.197 149 165.297 150 164.297 150.9C163.397 149.9 162.397 149 161.497 148.1C158.797 150.2 155.597 151.6 152.097 152C152.097 153.4 151.997 154.7 151.997 156C150.597 156 149.297 155.9 147.997 155.9C147.997 154.6 148.097 153.3 148.097 151.9C144.597 151.5 141.297 150.1 138.697 148C137.697 148.9 136.697 149.8 135.697 150.8C134.797 149.8 133.897 148.8 132.897 147.9C133.897 147 134.797 146.1 135.797 145.2C133.697 142.5 132.297 139.3 131.897 135.8C130.497 135.8 129.197 135.7 127.797 135.7C127.797 134.3 127.897 133 127.897 131.7C129.197 131.7 130.497 131.8 131.797 131.9C132.197 128.3 133.597 125.1 135.697 122.5C134.797 121.5 133.897 120.5 132.897 119.5C133.897 118.6 134.897 117.7 135.897 116.8C136.797 117.8 137.697 118.7 138.497 119.7C141.097 117.6 144.397 116.2 147.897 115.8V111.8H151.897L152.197 115.7ZM150.197 120.1C157.797 120.1 163.997 126.3 163.997 133.9C163.997 141.5 157.797 147.7 150.197 147.7C142.597 147.7 136.397 141.5 136.397 133.9C136.297 126.3 142.497 120.1 150.197 120.1Z" fill="#2F388D"/>
<path fill-rule="evenodd" clip-rule="evenodd" d="M152.197 115.7C155.697 116.1 158.997 117.5 161.597 119.6L164.397 116.8L167.197 119.6L164.397 122.4C166.497 125 167.897 128.3 168.297 131.8C169.597 131.8 170.997 131.8 172.297 131.8C172.297 133.1 172.297 134.5 172.297 135.8C170.997 135.8 169.597 135.8 168.297 135.8C167.897 139.3 166.497 142.6 164.397 145.2C165.297 146.2 166.297 147.1 167.197 148.1C166.197 149 165.297 150 164.297 150.9C163.397 149.9 162.397 149 161.497 148.1C158.797 150.2 155.597 151.6 152.097 152C152.097 153.4 151.997 154.7 151.997 156C150.597 156 149.297 155.9 147.997 155.9C147.997 154.6 148.097 153.3 148.097 151.9C144.597 151.5 141.297 150.1 138.697 148C137.697 148.9 136.697 149.8 135.697 150.8C134.797 149.8 133.897 148.8 132.897 147.9C133.897 147 134.797 146.1 135.797 145.2C133.697 142.5 132.297 139.3 131.897 135.8C130.497 135.8 129.197 135.7 127.797 135.7C127.797 134.3 127.897 133 127.897 131.7C129.197 131.7 130.497 131.8 131.797 131.9C132.197 128.3 133.597 125.1 135.697 122.5C134.797 121.5 133.897 120.5 132.897 119.5C133.897 118.6 134.897 117.7 135.897 116.8C136.797 117.8 137.697 118.7 138.497 119.7C141.097 117.6 144.397 116.2 147.897 115.8V111.8H151.897L152.197 115.7ZM150.197 120.1C157.797 120.1 163.997 126.3 163.997 133.9C163.997 141.5 157.797 147.7 150.197 147.7C142.597 147.7 136.397 141.5 136.397 133.9C136.297 126.3 142.497 120.1 150.197 120.1Z" fill="#0072BC"/>
<path fill-rule="evenodd" clip-rule="evenodd" d="M145.102 112.6H155.602L153.302 159.2H146.802L145.102 112.6Z" fill="#2F388D"/>
<path d="M203.703 121C202.803 120.4 201.903 119.8 201.103 119.3L201.903 117.6L202.003 117.5L201.903 117.4C200.903 116.6 199.703 115.9 198.503 115.1L199.603 112.5V112.4L199.503 112.3C188.103 102 170.703 99.8 150.403 105.9C129.503 100.8 113.703 102.7 102.203 111.4L102.103 111.5L103.303 114.3C102.103 114.9 100.903 115.6 99.7031 116.3L99.5031 116.4L100.403 118.4C99.5031 118.9 98.6031 119.4 97.9031 119.8L97.7031 119.9L122.503 168.1L122.603 168.3L122.803 168.2C144.903 158.1 159.303 160.7 179.603 169.6L179.803 169.7L204.003 121.2L203.703 121ZM197.803 116.6C198.603 117.1 199.303 117.6 200.003 118.1L177.903 166.6C177.803 166.5 177.603 166.5 177.503 166.4L197.803 116.6ZM200.503 120.8C200.703 120.9 200.903 121.1 201.203 121.2C201.403 121.3 201.603 121.5 201.903 121.6L182.503 160.5L200.503 120.8ZM201.503 117.6L200.803 119.1L200.103 120.6L178.703 167.6L178.503 168.1C178.003 167.9 177.503 167.7 177.003 167.5L177.303 166.8C177.503 166.9 177.703 167 177.903 167.1L178.103 167.2L200.403 118.2L200.503 118L200.403 117.9C199.603 117.4 198.803 116.8 198.003 116.3C198.003 116.3 198.003 116.3 197.903 116.3L198.203 115.6C199.503 116.2 200.503 116.9 201.503 117.6ZM150.303 106.3C170.503 100.2 187.803 102.4 199.103 112.5L177.203 166.2V166.3L176.803 167.2C176.403 167 175.903 166.9 175.503 166.7C174.903 166.5 174.403 166.3 173.903 166.1C173.503 165.9 173.103 165.8 172.603 165.6C164.603 162.7 156.803 160.9 148.303 161.1H148.203C140.103 161.1 132.503 162.7 124.903 166L102.603 111.5C113.903 103 129.503 101.3 150.303 106.3ZM119.103 158.2L99.7031 120.5C100.103 120.3 100.503 120 100.903 119.8L119.103 158.2ZM123.103 163.1L101.303 117.1L101.603 116.9C102.303 116.5 102.903 116.1 103.603 115.8L123.103 163.1ZM103.203 114.7L103.503 115.4C102.803 115.8 102.103 116.2 101.403 116.5L100.803 116.9L123.803 165.6L123.903 165.8L124.103 165.7L124.403 166.4C124.303 166.4 124.103 166.5 124.003 166.6C123.803 166.7 123.703 166.7 123.503 166.8L123.303 166.3L101.303 119.7L100.603 118.3L99.8031 116.7C101.003 115.9 102.103 115.2 103.203 114.7ZM98.2031 120.1C98.9031 119.7 99.7031 119.3 100.503 118.8L100.803 119.5C100.303 119.8 99.8031 120 99.3031 120.3L99.1031 120.4L122.903 166.6L123.003 166.8H123.103L123.403 167.4L123.603 167.3C124.403 166.9 125.203 166.7 126.103 166.3C126.603 166.1 127.203 165.9 127.703 165.7C126.103 166.3 124.403 167 122.703 167.8L98.2031 120.1ZM179.403 169.1C175.603 167.5 172.003 166 168.503 164.8C169.703 165.2 170.903 165.6 172.203 166C173.103 166.3 173.903 166.7 174.803 167C174.903 167 174.903 167 175.003 167.1C176.203 167.5 177.303 168 178.503 168.5L178.703 168.6L179.003 168.1H179.103L202.303 121.7L202.403 121.5L202.203 121.4C201.903 121.2 201.703 121 201.403 120.9C201.203 120.7 200.903 120.6 200.703 120.4L201.003 119.7C201.703 120.1 202.503 120.7 203.303 121.3L179.403 169.1Z" fill="#EC2027"/>
<path d="M125.198 165.1L125.398 165C133.698 161.5 142.398 160 151.298 160.5C158.998 160.9 167.198 162.8 176.098 166.2L176.298 166.3L198.098 112.9V112.8L197.998 112.7C192.698 108.1 186.098 105.3 178.398 104.2C169.998 103 160.698 104 150.598 107L150.398 107.1L150.098 107C131.598 102.5 117.298 103.5 106.398 109.9C105.398 110.5 104.398 111.1 103.498 111.8L103.398 111.9L125.198 164.9V165.1ZM106.598 110.3C117.398 103.9 131.598 103 149.998 107.4L150.398 107.5L150.698 107.4C160.798 104.4 170.098 103.4 178.398 104.6C185.998 105.6 192.498 108.4 197.698 112.9L175.998 165.7C167.098 162.3 158.998 160.5 151.298 160.1C150.198 160.1 149.198 160 148.098 160C140.298 160 132.698 161.5 125.398 164.5L103.898 112C104.698 111.4 105.598 110.8 106.598 110.3Z" fill="#EC2027"/>
<path fill-rule="evenodd" clip-rule="evenodd" d="M150.199 101.8C144.899 101.6 137.999 98.2 136.199 91.9C134.299 85.6 140.599 81.7 138.199 72.9C142.099 74.4 140.899 76.5999 142.199 81.6999C143.199 76.8999 140.999 71.6 145.699 68.9C150.299 66.3 137.899 61.3 148.199 56.7C144.899 60.4 145.999 60.4 150.699 64.5C153.899 67.4 151.799 70.1999 151.799 74.1999C153.099 70.6999 152.799 70.1999 156.199 67.6999C154.699 72.3999 156.499 74.2 156.599 77.3C159.099 76.9 157.399 72.1999 159.899 71.6999C157.899 78.5999 166.199 86.4999 164.099 92.5999C161.699 99.1999 155.599 102 150.199 101.8ZM152.599 95.9C151.899 90 148.099 94.8999 146.599 88.0999C145.699 83.9999 150.299 80.2 149.699 73.9C151.199 76.4 154.399 80.2 153.099 82.8C150.999 87.4 154.199 91 152.599 95.9ZM139.499 80.6999C137.799 84.5999 137.199 88.4 137.899 90.5C139.399 90.1 140.299 91.8 140.499 95.5C142.499 87.1 137.899 89.2999 139.499 80.6999Z" fill="#EC2027"/>
<path fill-rule="evenodd" clip-rule="evenodd" d="M149.904 85.3C150.004 85.5 150.104 85.8 150.304 86.1C153.904 91.7 157.304 95 157.404 101C157.504 106.7 156.104 111.1 150.704 114.2C150.704 114.2 150.604 114.1 150.504 114.1C150.504 114.1 150.404 114.1 150.304 114.1C144.904 111.1 143.104 108.9 143.304 103.1C143.404 96.9 148.204 94.3 149.904 86.1C150.004 85.8 149.804 85.5 149.904 85.3Z" fill="white"/>
<path fill-rule="evenodd" clip-rule="evenodd" d="M172.403 131.7C171.103 131.7 169.903 131.7 168.503 131.7C168.103 128.3 166.803 125.1 164.703 122.5L167.503 119.7L164.503 116.7L164.403 116.6L161.603 119.4C159.803 118 157.803 117 155.703 116.3L155.903 112.6V112.4H153.203C156.503 109.5 157.603 105.7 157.503 101C157.403 94.9 153.903 91.7 150.303 86.1C150.203 85.9 150.103 85.6 150.003 85.4C150.003 85.3 150.003 85.3 150.003 85.2C150.003 85.2 150.003 85.2 150.003 85.3C150.003 85.5 149.903 85.7 149.903 85.9C148.203 94 143.003 97.3 142.903 103C142.903 107.5 144.303 110.1 147.403 112.4H144.903L145.003 116.2C142.703 116.9 140.603 117.9 138.703 119.4L137.703 118.3C137.203 117.7 136.703 117.2 136.103 116.6L136.003 116.4L135.903 116.5C134.903 117.4 133.903 118.3 132.903 119.2L132.803 119.3L132.903 119.4C133.203 119.8 133.603 120.1 133.903 120.5C134.403 121.1 135.003 121.7 135.503 122.3C133.403 125 132.103 128.1 131.703 131.5C131.003 131.5 130.203 131.4 129.503 131.4L127.803 131.3V132.1C127.803 133.3 127.703 134.4 127.703 135.6V135.8H127.903C128.503 135.8 129.003 135.8 129.603 135.8C130.403 135.8 131.103 135.8 131.803 135.9C132.203 139.2 133.503 142.4 135.603 145.1C135.103 145.5 134.703 146 134.203 146.4C133.803 146.8 133.303 147.2 132.903 147.6L132.803 147.7L134.103 149.1C134.603 149.7 135.203 150.2 135.703 150.8L135.803 150.9L135.903 150.8C136.803 149.9 137.803 149 138.703 148.1C141.003 149.9 143.603 151 146.303 151.6L146.603 159H153.503L153.903 151.6C156.703 151 159.303 149.9 161.503 148.1L164.303 150.9L164.403 150.8C165.003 150.2 165.603 149.6 166.203 149.1L167.503 147.9L167.403 147.8C166.703 147.1 166.103 146.4 165.403 145.8L164.703 145.1C166.803 142.4 168.103 139.3 168.503 135.9C169.703 135.9 171.003 135.9 172.303 135.9H172.503V136C172.503 134.7 172.503 133.3 172.503 132V131.8L172.403 131.7ZM152.003 112.1C151.903 112.2 151.803 112.3 151.703 112.4H151.403C151.403 112.3 151.403 112.1 151.403 112H152.003V112.1ZM150.203 112.3H149.103C148.903 112.2 148.703 112 148.403 111.9H150.203C150.203 112.1 150.203 112.2 150.203 112.3ZM146.203 146.9C140.603 145.2 136.503 140 136.503 133.9C136.503 128.1 140.103 123.2 145.203 121.2L146.203 146.9ZM155.403 121.4C160.303 123.5 163.803 128.3 163.803 133.9C163.803 140 159.703 145.2 154.203 146.9L155.403 121.4ZM155.203 95.5C156.003 97.3 156.403 99.1 156.403 101C156.503 105.4 155.403 109 152.403 111.7V111.5H151.503C152.603 104.3 152.403 96.3 151.103 88.7C152.703 91.1 153.903 92.8 155.203 95.5ZM144.003 103.2C144.003 101.5 144.403 100.6 144.903 99.2C145.703 97.3 147.003 95.4 147.903 93.6C148.703 92.2 149.403 90.6 149.903 88.9C151.003 96.4 151.303 103.9 150.303 111.5H148.003C145.203 109.5 143.903 107.2 144.003 103.2ZM138.903 148L138.803 147.9L138.703 148C137.803 148.9 136.803 149.8 135.903 150.6C135.403 150.1 134.903 149.6 134.403 149L133.403 147.9C133.803 147.5 134.203 147.2 134.603 146.8C135.103 146.3 135.603 145.8 136.203 145.3L136.303 145.2L136.203 145.1C134.103 142.4 132.703 139.2 132.303 135.8V135.6H132.003C131.203 135.6 130.403 135.6 129.603 135.5C129.103 135.5 128.603 135.5 128.103 135.5C128.103 134.4 128.203 133.3 128.203 132.2V131.8L129.503 131.9C130.303 131.9 131.103 132 131.903 132H132.103V131.8C132.503 128.4 133.803 125.2 136.003 122.5L136.103 122.4L136.003 122.3C135.403 121.7 134.803 121 134.303 120.4C134.003 120.1 133.703 119.8 133.403 119.4C134.303 118.6 135.203 117.8 136.103 117C136.603 117.5 137.003 118 137.503 118.6L138.703 119.9L138.803 119.8C140.603 118.3 142.803 117.3 145.003 116.6L145.203 120.8C139.903 122.8 136.103 127.9 136.103 133.9C136.103 140.3 140.403 145.6 146.203 147.3L146.403 151.5C143.703 151 141.103 149.8 138.903 148ZM172.103 135.7C170.803 135.7 169.503 135.7 168.303 135.7H168.103V135.9C167.703 139.3 166.403 142.5 164.203 145.2L164.103 145.3L165.003 146.3C165.603 146.9 166.203 147.6 166.903 148.2L165.903 149.2C165.403 149.7 164.803 150.3 164.303 150.8L161.503 148L161.403 148.1C159.203 149.9 156.603 151 153.903 151.6L154.103 147.4C159.903 145.7 164.103 140.3 164.103 134C164.103 128.1 160.503 123.1 155.403 121.1L155.603 116.9C157.703 117.6 159.703 118.6 161.403 120L161.503 120.1L164.303 117.3L166.903 119.9L164.103 122.7L164.203 122.8C166.303 125.4 167.703 128.7 168.103 132.1V132.3H168.303C169.603 132.3 170.803 132.3 172.103 132.3C172.103 133.3 172.103 134.5 172.103 135.7Z" fill="#0072BC"/>
<path fill-rule="evenodd" clip-rule="evenodd" d="M150.8 51C205.9 51 250.6 95.7 250.6 150.8C250.6 205.9 205.9 250.6 150.8 250.6C95.7 250.6 51 205.9 51 150.8C51 95.7 95.7 51 150.8 51ZM150.8 52.5C205.1 52.5 249.2 96.5 249.2 150.9C249.2 205.2 205.1 249.3 150.8 249.3C96.5 249.3 52.4 205.2 52.4 150.9C52.4 96.5 96.5 52.5 150.8 52.5Z" fill="#0072BC"/>
<path fill-rule="evenodd" clip-rule="evenodd" d="M221.098 86.9C236.298 103.8 245.698 126.1 245.698 150.6C245.698 203 203.098 245.7 150.798 245.7C98.4984 245.7 55.8984 203 55.8984 150.6C55.8984 126.1 65.1984 103.8 80.4984 86.9H100.598C81.7984 101.8 69.6984 124.8 69.6984 150.6C69.6984 195.4 106.098 231.9 150.798 231.9C195.498 231.9 231.898 195.4 231.898 150.6C231.898 124.8 219.798 101.8 200.998 86.9H221.098Z" fill="#0072BC"/>
<path fill-rule="evenodd" clip-rule="evenodd" d="M76.2993 138.1L96.0993 130.4C97.5993 129.8 99.1993 130.4 99.6993 131.7C100.199 132.9 99.2993 134.5 97.8993 135L77.9993 142.7C76.4993 143.3 74.8993 142.7 74.3993 141.5C73.9993 140.1 74.7993 138.6 76.2993 138.1ZM76.6993 145.6L99.2993 137C100.999 136.4 102.799 137 103.399 138.4C103.899 139.8 102.999 141.5 101.299 142.2L78.6993 150.8C76.9993 151.4 75.1993 150.8 74.5993 149.4C73.9993 147.9 74.9993 146.2 76.6993 145.6ZM77.1993 153.7L101.499 144.5C103.299 143.8 105.299 144.5 105.899 146C106.499 147.5 105.499 149.4 103.599 150L79.2993 159.2C77.4993 159.9 75.4993 159.2 74.8993 157.7C74.2993 156.2 75.2993 154.4 77.1993 153.7ZM78.5993 161.7L104.199 152C106.099 151.3 108.199 152 108.799 153.6C109.399 155.2 108.399 157.1 106.499 157.9L80.8993 167.6C78.9993 168.3 76.8993 167.6 76.2993 166C75.6993 164.3 76.7993 162.4 78.5993 161.7ZM80.1993 169.9L107.899 159.4C109.999 158.6 112.199 159.4 112.799 161.2C113.499 163 112.299 165 110.299 165.8L92.6993 172.5C98.0993 171 103.899 169.3 110.399 167.3C125.599 170.8 132.899 175.1 135.199 179.8C137.499 184.5 135.599 200.8 130.499 227.9C120.599 225.1 110.899 219.9 101.299 213.2C103.699 191.9 103.099 191.1 106.499 188.9C109.999 186.7 112.899 188.5 121.099 190.4C105.999 184.2 96.3993 182.6 81.5993 176.7C79.7993 177 78.0993 176.2 77.4993 174.7C76.9993 172.7 78.0993 170.6 80.1993 169.9Z" fill="#EC2027"/>
<path fill-rule="evenodd" clip-rule="evenodd" d="M225.598 138.1L205.798 130.4C204.298 129.8 202.698 130.4 202.198 131.7C201.698 132.9 202.598 134.5 203.998 135L223.798 142.7C225.298 143.3 226.898 142.7 227.298 141.5C227.898 140.1 227.098 138.6 225.598 138.1ZM225.298 145.6L202.698 137C200.998 136.4 199.198 137 198.698 138.4C198.198 139.8 199.098 141.5 200.798 142.2L223.398 150.8C225.098 151.4 226.898 150.8 227.398 149.4C227.898 147.9 226.998 146.2 225.298 145.6ZM224.798 153.7L200.498 144.5C198.698 143.8 196.698 144.5 196.098 146C195.498 147.5 196.498 149.4 198.298 150L222.598 159.2C224.398 159.9 226.398 159.2 226.998 157.7C227.598 156.2 226.598 154.4 224.798 153.7ZM223.298 161.7L197.798 152C195.898 151.3 193.798 152 193.198 153.6C192.598 155.2 193.598 157.1 195.598 157.9L221.198 167.6C223.098 168.3 225.198 167.6 225.798 166C226.298 164.3 225.198 162.4 223.298 161.7ZM221.798 169.9L194.198 159.4C192.098 158.6 189.898 159.4 189.198 161.2C188.498 163 189.698 165 191.798 165.8L209.398 172.5C203.998 171 198.198 169.3 191.698 167.3C176.498 170.8 169.198 175.1 166.898 179.8C164.598 184.5 166.498 200.8 171.498 227.9C181.998 224.5 190.798 220 200.398 213.5C197.998 192.2 198.898 191.1 195.398 188.8C191.898 186.6 188.998 188.4 180.798 190.3C195.898 184.1 205.498 182.5 220.298 176.6C222.098 176.9 223.798 176.1 224.398 174.6C224.998 172.7 223.798 170.6 221.798 169.9Z" fill="#EC2027"/>
<path d="M150.798 24.9C81.3984 24.9 24.8984 81.4 24.8984 150.8C24.8984 158.6 25.5984 166.2 26.9984 173.6L35.3984 172.1C34.0984 165.2 33.4984 158.1 33.4984 150.9C33.4984 86.2 86.0984 33.5 150.898 33.5C215.598 33.5 268.198 86.1 268.198 150.9C268.198 215.6 215.598 268.2 150.898 268.2C141.898 268.2 133.098 267.2 124.698 265.2L122.798 273.5C131.798 275.6 141.298 276.7 150.898 276.7C220.298 276.7 276.698 220.2 276.698 150.9C276.698 81.4 220.198 24.9 150.798 24.9Z" fill="#0072BC">
<animateTransform
      attributeName="transform"
      attributeType="XML"
      type="rotate"
      from="0 151 151"
      to="360 151 151"
      dur="3s"
      repeatCount="indefinite" />
</path>
<path d="M287.9 118.4C290.4 128.8 291.7 139.6 291.7 150.8C291.7 228.5 228.5 291.7 150.8 291.7C73.1 291.7 9.9 228.5 9.9 150.8C9.9 73.1 73.1 9.9 150.8 9.9C171 9.9 190.2 14.2 207.5 21.8L211.5 12.7C192.9 4.6 172.4 0 150.8 0C67.7 0 0 67.7 0 150.8C0 234 67.7 301.6 150.8 301.6C233.9 301.6 301.6 234 301.6 150.8C301.6 138.9 300.2 127.3 297.6 116.1L287.9 118.4Z" fill="#ED405D">
<animateTransform
      attributeName="transform"
      attributeType="XML"
      type="rotate"
      from="360 151 151"
      to="0 151 151"
      dur="5s"
      repeatCount="indefinite" />
</path>
</svg>
